<svg width="24" height="24" viewBox="0 0 24 24" fill="none" xmlns="http://www.w3.org/2000/svg">
<g id="FN Components/&#240;&#159;&#142;&#137; Icons/24x24/Mid-Taupe/actions/actions">
<path id="Path 2" fill-rule="evenodd" clip-rule="evenodd" d="M7.09907 12.6547L11.0705 12.0237L8.0788 22.4304C7.95512 22.8606 8.14855 23.3188 8.5431 23.5302C9.00556 23.778 9.58135 23.604 9.82917 23.1416L17.6934 8.46629C17.7886 8.28859 17.8248 8.08521 17.7968 7.88557C17.7239 7.36599 17.2436 7.00388 16.724 7.07678L12.4138 7.68153L14.6049 1.63089C14.6425 1.52718 14.6617 1.41772 14.6617 1.30742C14.6617 0.782751 14.2363 0.357422 13.7117 0.357422H10.3487C9.9376 0.357422 9.57317 0.621797 9.44558 1.01256L6.04692 11.4216C6.00019 11.5647 5.98815 11.7169 6.01177 11.8655C6.0941 12.3837 6.5809 12.737 7.09907 12.6547ZM7.75202 11.0321L10.7477 1.85742H12.9275L10.6924 8.02965C10.5138 8.52297 10.7689 9.06771 11.2622 9.24635C11.4079 9.2991 11.5642 9.31542 11.7177 9.2939L15.8595 8.71278L10.9485 17.8771L12.7509 11.6073C12.8959 11.1031 12.6046 10.5768 12.1003 10.4319C11.9667 10.3934 11.8262 10.3848 11.6888 10.4066L7.75202 11.0321Z" fill="#826F75"/>
</g>
</svg>
