<svg width="24" height="24" viewBox="0 0 24 24" fill="none" xmlns="http://www.w3.org/2000/svg">
<g id="FN Components/&#240;&#159;&#142;&#137; Icons/24x24/Mid-Taupe/actions/campaign">
<path id="Path" fill-rule="evenodd" clip-rule="evenodd" d="M7.55341 18.6152L7.61906 18.5821L7.60308 18.5921L7.59608 18.5961C7.00133 18.9385 6.24894 18.737 5.90642 18.1458L2.55142 12.3338C2.21012 11.7429 2.41235 10.9869 2.96195 10.6738L3.01187 10.6427L2.99075 10.6563L3.0088 10.6465L3.00905 10.6464L3.10853 10.5925L3.09264 10.6005L3.11655 10.5851L3.18953 10.5455L3.17777 10.5515L3.23459 10.5146L3.26156 10.5001L3.23287 10.5157L3.17776 10.5515L3.13533 10.5729L3.16187 10.5557L3.21787 10.5237L3.23459 10.5146L3.24687 10.5067L3.26087 10.4987L3.27759 10.4896L3.28987 10.4817L3.30864 10.4715L3.31187 10.4697L3.32687 10.4607L3.33387 10.4567L3.35619 10.4446L3.35247 10.4469L3.3564 10.4445L3.37756 10.4331L3.39256 10.4241L3.36886 10.437L3.38587 10.4267L3.40437 10.4167L3.39747 10.4209L3.40476 10.4165L3.42956 10.4031L3.44456 10.3941L3.42686 10.4037L3.43717 10.3978L3.48256 10.3721L3.46486 10.3817L3.47517 10.3758L3.49197 10.3664L3.49384 10.3652L3.52056 10.3501L3.50677 10.3576L3.52297 10.3484L3.55387 10.3297L3.53547 10.3409L3.60556 10.3011L3.55147 10.3319L3.62156 10.2921L3.62928 10.2874L3.61447 10.2959L3.61606 10.2949L3.63122 10.2863L3.63292 10.2852L3.6166 10.2946L3.63389 10.2847L3.61872 10.2932L3.62247 10.2909L3.65766 10.2709L3.66247 10.2679L3.68006 10.2579L3.68647 10.2539L3.70406 10.2439L3.71047 10.2399L3.72966 10.229L3.76774 10.2063L3.78148 10.1989L3.79606 10.1906L3.80047 10.1879L3.80574 10.1849L3.79842 10.1893L3.83756 10.1671L3.82547 10.1739L3.82906 10.1716L3.87474 10.1443L3.8866 10.1379L3.89147 10.1349L3.89974 10.1303L3.89655 10.1322L3.90898 10.1256L3.94974 10.1013L3.92547 10.1159L3.96674 10.0913L3.94247 10.1059L3.98374 10.0813L4.0043 10.0703L4.01774 10.0623L4.00545 10.0697L4.03474 10.0523L4.01047 10.0669L4.05174 10.0423L4.02747 10.0569L4.06874 10.0323L4.07774 10.0273L4.05347 10.0419L4.09474 10.0173L4.10374 10.0123L4.07947 10.0269L4.12074 10.0023L4.09647 10.0169L4.13774 9.99226L4.15574 9.98226L4.13147 9.99688L4.17274 9.97226L4.19074 9.96226L4.16647 9.97688L4.20774 9.95226L4.22574 9.94226L4.20147 9.95688L4.24274 9.93226L4.25174 9.92726L4.20895 9.95384L4.26974 9.91626L4.28774 9.90626L4.26347 9.92088L4.30474 9.89626L4.32274 9.88626L4.27995 9.91284L4.34074 9.87526L4.36774 9.86026L4.32495 9.88684L4.38574 9.84926L4.41274 9.83426L4.36995 9.86084L4.43074 9.82326L4.45774 9.80826L4.41495 9.83484L4.47574 9.79726L4.48474 9.79226L4.50031 9.78394L4.51274 9.77626L4.52174 9.77126L4.50752 9.78009L4.53974 9.76026L4.55531 9.75194L4.56774 9.74426L4.58574 9.73426L4.5731 9.74176L4.60474 9.72326L4.61374 9.71826L4.57095 9.74484L4.59649 9.7298L4.65074 9.69626L4.65974 9.69126L4.6471 9.69876L4.67874 9.68026L4.68774 9.67526L4.6751 9.68276L4.70674 9.66426L4.66395 9.69084L4.73219 9.65065L4.71095 9.66384L4.77919 9.62365L4.77722 9.62487L4.72995 9.65284L4.77325 9.62734L4.75795 9.63684L4.84756 9.58406L4.77695 9.62584L4.86656 9.57306L4.79595 9.61484L4.88556 9.56206L4.81495 9.60384L4.90456 9.55106L4.83395 9.59284L4.92356 9.54006L4.85295 9.58184L4.94256 9.52906L4.87195 9.57084L4.96156 9.51806L4.9211 9.54076L4.95274 9.52226L4.9401 9.52976L4.97174 9.51126L4.9591 9.51876L4.97806 9.50819L4.9881 9.50176L5.01974 9.48326L5.0071 9.49076L5.04325 9.47061L5.02872 9.48004L4.99695 9.49884L5.02729 9.48097L5.11556 9.42906L5.0751 9.45176L5.10117 9.43652L5.1041 9.43476L5.16456 9.40106L5.09395 9.44284L5.18356 9.39006L5.1431 9.41276L5.1531 9.40676L5.17917 9.39152L5.24256 9.35606L5.2021 9.37876L5.18195 9.39184L5.25343 9.34974L5.24095 9.35784L5.33056 9.30506L5.2901 9.32776L5.3001 9.32176L5.32357 9.30868L5.3401 9.29876L5.36617 9.28352L5.3691 9.28176L5.39257 9.26868L5.4091 9.25876L5.43257 9.24568L5.4491 9.23576L5.47257 9.22268L5.4991 9.20676L5.52257 9.19368L5.5391 9.18376L5.56257 9.17068L5.5991 9.14876L5.62257 9.13568L5.6291 9.13176L5.66583 9.11046L5.6501 9.11976L5.67357 9.10668L5.7201 9.07876L5.74429 9.06585L5.7811 9.04376L5.81783 9.02246L5.83011 9.01595L5.8321 9.01476L5.86198 8.99743L5.8831 8.98476L5.91983 8.96346L5.93532 8.95525L5.95398 8.94443L5.9651 8.93776L5.99498 8.92043L6.0061 8.91376L6.04283 8.89246L6.0271 8.90176L6.06465 8.88083L6.09798 8.86143L6.0991 8.86076L6.12898 8.84343L6.1301 8.84276L6.15998 8.82543L6.19098 8.80743L6.22198 8.78943L6.25983 8.76746L6.2441 8.77676L6.27398 8.75943L6.31183 8.73746L6.2961 8.74676L6.32598 8.72943L6.36383 8.70746L6.3481 8.71676L6.37798 8.69943L6.3791 8.69876L6.41583 8.67746L6.4001 8.68676L6.43683 8.66546L6.4211 8.67476L6.45783 8.65346L6.4421 8.66276L6.47198 8.64543L6.50983 8.62346L6.4941 8.63276L6.53083 8.61146L6.5151 8.62076L6.54292 8.60463L6.5571 8.59576L6.59383 8.57446L6.5781 8.58376L6.61483 8.56246L6.5991 8.57176L6.63583 8.55046L6.6201 8.55976L6.65683 8.53846L6.6411 8.54776L6.67783 8.52646L6.6621 8.53576L6.69883 8.51446L6.6831 8.52376L6.71092 8.50763L6.7251 8.49876L6.76183 8.47746L6.7461 8.48676L6.78283 8.46546L6.7671 8.47476L6.80383 8.45346L6.7881 8.46276L6.82483 8.44146L6.8091 8.45076L6.84583 8.42946L6.8301 8.43876L6.85234 8.42586L6.8621 8.41976L6.89883 8.39846L6.8831 8.40776L6.91983 8.38646L6.9041 8.39576L6.94083 8.37446L6.9251 8.38376L6.96183 8.36246L6.9461 8.37176L6.96834 8.35886L6.9781 8.35276L7.01483 8.33146L6.9991 8.34076L7.03583 8.31946L7.0201 8.32876L7.05683 8.30746L7.06783 8.30146L7.0521 8.31076L7.08883 8.28946L7.02887 8.32745L7.10627 8.2787L7.13083 8.26446L7.14183 8.25846L7.1261 8.26776L7.16283 8.24646L7.1471 8.25576L7.18383 8.23446L7.1681 8.24376L7.16131 8.24813L7.20666 8.22095L7.23683 8.20346L7.2211 8.21276L7.25783 8.19146L7.2421 8.20076L7.27883 8.17946L7.28983 8.17346L7.22987 8.21145L7.30727 8.1627L7.33183 8.14846L7.34283 8.14246L7.3271 8.15176L7.36383 8.13046L7.3481 8.13976L7.38483 8.11846L7.32487 8.15645L7.40583 8.10546L7.41683 8.09946L7.4011 8.10876L7.43783 8.08746L7.4221 8.09676L7.45883 8.07546L7.46477 8.07222L7.4751 8.06576L7.51183 8.04446L7.52283 8.03846L7.5071 8.04776L7.54383 8.02646L7.5281 8.03576L7.56483 8.01446L7.5491 8.02376L7.54231 8.02813L7.58766 8.00095L7.61783 7.98346L7.6021 7.99276L7.63883 7.97146L7.6231 7.98076L7.65983 7.95946L7.67083 7.95346L7.61087 7.99145L7.68827 7.9427L7.71283 7.92846L7.6971 7.93776L7.73383 7.91646L7.74483 7.91046L7.7291 7.91976L7.75692 7.90363L7.7711 7.89476L7.79196 7.88237C8.51965 7.46221 9.1663 6.74751 9.73522 5.79074C10.2074 4.99622 10.6109 4.06261 10.9505 3.04071C11.0894 2.62394 11.4703 2.32798 11.9291 2.26311C12.3925 2.19828 12.8167 2.386 13.0335 2.76088L19.5338 14.02C19.7549 14.399 19.702 14.866 19.4059 15.2373C19.1137 15.6014 18.661 15.7758 18.2282 15.6752C17.1453 15.422 16.1105 15.2722 15.1723 15.2578C14.0402 15.2402 13.0954 15.4211 12.3928 15.826L12.3828 15.832L12.3461 15.8533L12.3618 15.844L12.332 15.8613L12.2941 15.8833L12.3098 15.874L12.28 15.8913L12.2788 15.892L12.2421 15.9133L12.2578 15.904L12.228 15.9213L12.1901 15.9433L12.2058 15.934L12.1691 15.9553L12.1848 15.946L12.155 15.9633L12.1638 15.958L12.155 15.9633L12.1328 15.977L12.0961 15.9983L12.1118 15.989L12.082 16.0063L12.0441 16.0283L12.0598 16.019L12.0231 16.0403L12.0388 16.031L12.0021 16.0523L12.0178 16.043L11.988 16.0603L11.9501 16.0823L11.9658 16.073L11.9291 16.0943L11.9448 16.085L11.9081 16.1063L11.9238 16.097L11.8871 16.1183L11.9028 16.109L11.873 16.1263L11.8351 16.1483L11.8508 16.139L11.823 16.1551L11.8088 16.164L11.7721 16.1853L11.7878 16.176L11.758 16.1933L11.7201 16.2153L11.7358 16.206L11.6991 16.2273L11.7148 16.218L11.6781 16.2393L11.6938 16.23L11.6571 16.2513L11.6728 16.242L11.6361 16.2633L11.6518 16.254L11.622 16.2713L11.5841 16.2933L11.5998 16.284L11.5631 16.3053L11.5788 16.296L11.5421 16.3173L11.6021 16.2793L11.5247 16.3281L11.5001 16.3423L11.5158 16.333L11.486 16.3503L11.4481 16.3723L11.4638 16.363L11.4271 16.3843L11.4428 16.375L11.4061 16.3963L11.4218 16.387L11.392 16.4043L11.3541 16.4263L11.3698 16.417L11.3331 16.4383L11.3488 16.429L11.319 16.4463L11.2811 16.4683L11.2968 16.459L11.2601 16.4803L11.2758 16.471L11.246 16.4883L11.2081 16.5103L11.2238 16.501L11.1871 16.5223L11.2028 16.513L11.173 16.5303L11.1351 16.5523L11.1508 16.543L11.121 16.5603L11.0831 16.5823L11.0988 16.573L11.069 16.5903L11.0311 16.6123L11.0468 16.603L11.017 16.6203L10.986 16.6383L10.955 16.6563L10.9171 16.6783L10.9328 16.669L10.903 16.6863L10.872 16.7043L10.841 16.7223L10.81 16.7403L10.7988 16.747L10.769 16.7643L10.738 16.7823L10.7468 16.777L10.738 16.7823L10.7311 16.7863L10.7353 16.7838L10.7127 16.7959L10.6958 16.806L10.666 16.8233L10.635 16.8413L10.6238 16.848L10.594 16.8653L10.5928 16.866L10.6028 16.86L10.594 16.8653L10.5871 16.8693L10.5903 16.8674L10.5663 16.8808L10.543 16.8943L10.5318 16.901L10.502 16.9183L10.4908 16.925L10.4533 16.9459L10.4198 16.966L10.3957 16.9789L10.3488 17.007L10.3247 17.0199L10.2878 17.042L10.2644 17.0551L10.2378 17.071L10.2011 17.0923L10.1888 17.0988L10.1768 17.106L10.1534 17.1191L10.1268 17.135L10.1034 17.1481L10.0868 17.158L10.0634 17.1711L10.0468 17.181L10.0234 17.1941L10.0068 17.204L9.98078 17.2192L9.97784 17.221L9.95437 17.2341L9.93784 17.244L9.91437 17.2571L9.90784 17.261L9.88178 17.2762L9.86884 17.284L9.80838 17.3177L9.84884 17.295L9.869 17.2819L9.77938 17.3347L9.81984 17.312L9.80984 17.318L9.74938 17.3517L9.74591 17.354L9.77084 17.34L9.76084 17.346L9.74188 17.3566L9.73184 17.363L9.70642 17.3772L9.68578 17.3892L9.6512 17.4095L9.66384 17.402L9.64488 17.4126L9.63484 17.419L9.5987 17.4391L9.60781 17.4332L9.60338 17.4357L9.61045 17.4315L9.645 17.4109L9.61465 17.4288L9.52638 17.4807L9.56684 17.458L9.5352 17.4765L9.54784 17.469L9.5162 17.4875L9.52884 17.48L9.4972 17.4985L9.50984 17.491L9.44938 17.5247L9.52 17.4829L9.43038 17.5357L9.501 17.4939L9.41138 17.5467L9.482 17.5049L9.39238 17.5577L9.463 17.5159L9.37338 17.5687L9.444 17.5269L9.36737 17.5721L9.3262 17.5975L9.30176 17.6106L9.2792 17.6245L9.26363 17.6328L9.25444 17.6385L9.2322 17.6515L9.2232 17.6565L9.23584 17.649L9.2042 17.6675L9.247 17.6409L9.20369 17.6664L9.219 17.6569L9.20214 17.6673L9.15738 17.6937L9.17453 17.6844L9.1582 17.6945L9.14263 17.7028L9.1302 17.7105L9.1212 17.7155L9.13542 17.7067L9.12038 17.7147L9.15505 17.6942L9.10233 17.7252L9.127 17.7099L9.09982 17.7267L9.07438 17.7417L9.08413 17.7364L9.0662 17.7475L9.0572 17.7525L9.06984 17.745L9.0382 17.7635L9.0202 17.7735L9.063 17.7469L9.0022 17.7845L8.9842 17.7945L9.027 17.7679L8.9662 17.8055L8.9392 17.8205L8.982 17.7939L8.9212 17.8315L8.8942 17.8465L8.937 17.8199L8.8762 17.8575L8.84312 17.8759L8.8052 17.8985L8.7692 17.9185L8.79347 17.9039L8.7522 17.9285L8.7342 17.9385L8.75847 17.9239L8.7172 17.9485L8.76 17.9219L8.70578 17.9554L8.6822 17.9695L8.6732 17.9745L8.69747 17.9599L8.6562 17.9845L8.6472 17.9895L8.67147 17.9749L8.6302 17.9995L8.6212 18.0045L8.60064 18.0155L8.5872 18.0235L8.59949 18.0161L8.59837 18.0167L8.5702 18.0335L8.5612 18.0385L8.58547 18.0239L8.56348 18.037L8.53848 18.052L8.5192 18.0635L8.53293 18.0552L8.51448 18.065L8.50448 18.071L8.4602 18.0975L8.44328 18.1065L8.4182 18.1215L8.44113 18.1077L8.42329 18.1178L8.3852 18.1405L8.40947 18.1259L8.39029 18.1368L8.3522 18.1595L8.37647 18.1449L8.35888 18.1549L8.35247 18.1589L8.32388 18.1751L8.31947 18.1779L8.3142 18.1809L8.32152 18.1765L8.28238 18.1987L8.28853 18.1954L8.30347 18.1869L8.2907 18.1942L8.26028 18.2119L8.25547 18.2149L8.22028 18.2349L8.21547 18.2379L8.17847 18.2589L8.15007 18.2761L8.16847 18.2649L8.09838 18.3047L8.15247 18.2739L8.08238 18.3137L8.07005 18.3211L8.05138 18.3317L8.03905 18.3391L8.02038 18.3497L8.00538 18.3587L7.99708 18.3629L7.98238 18.3717L7.97438 18.3757L7.95907 18.3849L7.95296 18.3879L7.9849 18.3672L7.9779 18.3722L7.87926 18.4316L7.87817 18.4322L7.90606 18.4141L7.57097 17.7439L8.0069 18.3542L7.9999 18.3592L7.95126 18.3885L7.61597 17.7179L8.0519 18.3282L8.0449 18.3332L7.97436 18.3757L7.63897 17.7049L8.0749 18.3152L8.0679 18.3202L7.96738 18.3807L7.94438 18.3937L7.97197 18.3787L7.95808 18.3871L7.9352 18.3994L7.95296 18.3879L7.91407 18.4109L7.89938 18.4197L7.89435 18.4234L7.87926 18.4316L7.87738 18.4327L7.8939 18.4237L7.88408 18.4301L7.84038 18.4537L7.86907 18.4381L7.87817 18.4322L7.86238 18.4407L7.85757 18.4431L7.81838 18.4667L7.8382 18.4559L7.81808 18.4681L7.78307 18.4881L7.77135 18.4944L7.76108 18.5011L7.68407 18.5451L7.721 18.5219L7.67107 18.5531L7.64307 18.5691L7.67119 18.5514L7.64859 18.5637L7.653 18.5609L7.64842 18.5638L7.55341 18.6152ZM8.04338 18.3357L7.70797 17.6649L8.1439 18.2752L8.1369 18.2802L8.05108 18.3319L8.04338 18.3357ZM8.44257 18.1032L8.12897 17.4219L8.52647 18.0579L8.51448 18.065L8.44257 18.1032ZM3.43756 10.3991L3.77297 11.0699L3.33704 10.4596L3.34404 10.4546L3.42987 10.4029L3.43756 10.3991ZM3.38556 10.4291L3.72097 11.0999L3.28504 10.4896L3.29204 10.4846L3.37787 10.4329L3.38556 10.4291ZM3.901 11.8589L3.85874 11.8853L3.84907 11.8902L3.867 11.8789L3.84862 11.8904L3.78741 11.9212L3.68717 11.7067L3.82 11.9059L3.77774 11.9323L3.8 11.9179L3.77396 11.9342C3.81744 11.9033 3.85023 11.8593 3.86863 11.8104L3.901 11.8589ZM7.07287 17.1661L7.08187 17.1607L7.09587 17.1527L7.10759 17.1464L7.11787 17.1397L7.15738 17.1183L7.16659 17.1124L7.18168 17.1042L7.16704 17.1121L7.17687 17.1057L7.19537 17.0957L7.18847 17.0999L7.19576 17.0955L7.22056 17.0821L7.23556 17.0731L7.20798 17.0881L7.22187 17.0797L7.26556 17.0561L7.28056 17.0471L7.28887 17.0429L7.30356 17.0341L7.31156 17.0301L7.32687 17.0209L7.33338 17.0177L7.35787 17.0029L7.36438 16.9997L7.38887 16.9849L7.73197 17.6519L7.59864 17.4652L7.70097 17.6699L7.56764 17.4832L7.66997 17.6879L7.57164 17.5502L7.64697 17.7009L7.58197 17.6099L7.63197 17.7099L7.53364 17.5722L7.60897 17.7229L7.41564 17.4522L7.56397 17.7489L7.46897 17.6159L7.54197 17.7619L7.28864 17.4072L7.48297 17.7959L7.14761 17.3264C7.09895 17.2852 7.03682 17.263 6.97395 17.2632L7.25797 17.9259L6.84195 17.3018L6.86629 17.2867C6.86143 17.2889 6.85661 17.2913 6.85185 17.2938L6.86487 17.2857L6.87187 17.2817L6.8842 17.2755L6.89187 17.2707L6.91987 17.2547L6.89704 17.269L6.93287 17.2467L7.00987 17.2027L6.96976 17.2287L7.06056 17.1741L7.0524 17.1785L7.07287 17.1661L7.10759 17.1464L7.12377 17.1376L7.09276 17.1577L7.14438 17.1267L7.18168 17.1042L7.19856 17.0951L7.20127 17.0937L7.22087 17.0819L7.26587 17.0559L7.27356 17.0521L7.28887 17.0429L7.58197 17.6099L7.21104 17.0906L7.3139 17.0279L7.32088 17.0239L7.33889 17.0137L7.35756 17.0031L7.36989 16.9957L7.38856 16.9851L7.38887 16.9849L7.39992 16.9782L7.36547 16.9979L7.40089 16.9777L7.36887 16.9958L7.39887 16.9777L7.38047 16.9889L7.41566 16.9689L7.42047 16.9659L7.45566 16.9459L7.46047 16.9429L7.49566 16.9229L7.50047 16.9199L7.51806 16.9099L7.52447 16.9059L7.56574 16.8813L7.58548 16.8707L7.61474 16.8533L7.59047 16.8679L7.60966 16.857L7.64774 16.8343L7.62347 16.8489L7.64266 16.838L7.66147 16.8268L7.66447 16.8249L7.70574 16.8003L7.72266 16.7912L7.73147 16.7859L7.74774 16.7763L7.73401 16.7845L7.75246 16.7747L7.76247 16.7688L7.80674 16.7423L7.78247 16.7569L7.82374 16.7323L7.83274 16.7273L7.80847 16.7419L7.84974 16.7173L7.82547 16.7319L7.86674 16.7073L7.8875 16.6962L7.89274 16.6933L7.90974 16.6833L7.90081 16.6891L7.93574 16.6683L7.94474 16.6633L7.92047 16.6779L7.96174 16.6533L7.91895 16.6798L7.97316 16.6463L7.99674 16.6323L8.01474 16.6223L7.99047 16.6369L8.03174 16.6123L8.06774 16.5923L8.04347 16.6069L8.03295 16.6138L8.09374 16.5763L8.13874 16.5513L8.09595 16.5778L8.15674 16.5403L8.18374 16.5253L8.14095 16.5518L8.20174 16.5143L8.22874 16.4993L8.18595 16.5258L8.24674 16.4883L8.26474 16.4783L8.22195 16.5048L8.28274 16.4673L8.30074 16.4573L8.2881 16.4648L8.31974 16.4463L8.32874 16.4413L8.28595 16.4678L8.34674 16.4303L8.35574 16.4253L8.37131 16.4169L8.38374 16.4093L8.39274 16.4043L8.37852 16.4131L8.39356 16.4051L8.35889 16.4256L8.39325 16.4053L8.37795 16.4148L8.3948 16.4044L8.43956 16.3781L8.42241 16.3874L8.43874 16.3773L8.45431 16.3689L8.4635 16.3633L8.48574 16.3503L8.49474 16.3453L8.4821 16.3528L8.51374 16.3343L8.47095 16.3608L8.51425 16.3353L8.49895 16.3448L8.56719 16.3046L8.56522 16.3059L8.51795 16.3338L8.56125 16.3083L8.54595 16.3178L8.63556 16.2651L8.56495 16.3068L8.65456 16.2541L8.58395 16.2958L8.67356 16.2431L8.60295 16.2848L8.69256 16.2321L8.62195 16.2738L8.71156 16.2211L8.64095 16.2628L8.73056 16.2101L8.65995 16.2518L8.74956 16.1991L8.67895 16.2408L8.76856 16.1881L8.7281 16.2108L8.75974 16.1923L8.7471 16.1998L8.77874 16.1813L8.7661 16.1888L8.79774 16.1703L8.7851 16.1778L8.80406 16.1672L8.8141 16.1608L8.85024 16.1406L8.84113 16.1465L8.84556 16.1441L8.83849 16.1482L8.80395 16.1688L8.83429 16.151L8.92256 16.0991L8.8821 16.1218L8.90817 16.1065L8.9111 16.1048L8.94274 16.0863L8.9301 16.0938L8.99056 16.0601L8.9501 16.0828L8.92995 16.0958L9.01956 16.0431L8.9791 16.0658L8.9891 16.0598L9.04956 16.0261L9.04825 16.0268L9.05303 16.0238L9.0281 16.0378L9.0381 16.0318L9.05706 16.0212L9.0671 16.0148L9.09057 16.0017L9.1071 15.9918L9.13317 15.9765L9.1361 15.9748L9.15957 15.9617L9.1761 15.9518L9.19957 15.9387L9.2061 15.9348L9.23217 15.9195L9.2451 15.9118L9.26857 15.8987L9.2851 15.8888L9.30857 15.8757L9.3251 15.8658L9.34857 15.8527L9.3751 15.8368L9.39857 15.8237L9.4251 15.8078L9.46265 15.7868L9.4861 15.7728L9.50957 15.7597L9.5461 15.7378L9.57029 15.7248L9.6171 15.6968L9.64129 15.6838L9.6781 15.6618L9.71483 15.6405L9.72711 15.634L9.7291 15.6328L9.75898 15.6154L9.7701 15.6088L9.80683 15.5875L9.7911 15.5968L9.81457 15.5837L9.8211 15.5798L9.85098 15.5624L9.8621 15.5558L9.89198 15.5384L9.92298 15.5204L9.9341 15.5138L9.95829 15.5008L9.9651 15.4968L9.99498 15.4794L10.026 15.4614L10.0371 15.4548L10.067 15.4374L10.098 15.4194L10.0991 15.4188L10.129 15.4014L10.1668 15.3795L10.1511 15.3888L10.181 15.3714L10.212 15.3534L10.243 15.3354L10.2441 15.3348L10.2808 15.3135L10.2651 15.3228L10.295 15.3054L10.2961 15.3048L10.3328 15.2835L10.3171 15.2928L10.347 15.2754L10.3481 15.2748L10.3848 15.2535L10.3691 15.2628L10.399 15.2454L10.4001 15.2448L10.4368 15.2235L10.4211 15.2328L10.4578 15.2115L10.4421 15.2208L10.472 15.2034L10.5098 15.1815L10.4941 15.1908L10.5308 15.1695L10.5151 15.1788L10.545 15.1614L10.5828 15.1395L10.5671 15.1488L10.6038 15.1275L10.5881 15.1368L10.618 15.1194L10.6191 15.1188L10.6558 15.0975L10.6401 15.1068L10.6768 15.0855L10.6611 15.0948L10.6978 15.0735L10.6821 15.0828L10.712 15.0654L10.7131 15.0648L10.7498 15.0435L10.7341 15.0528L10.7708 15.0315L10.7551 15.0408L10.7918 15.0195L10.7319 15.0575L10.8093 15.0087L10.8338 14.9945L10.8181 15.0038L10.848 14.9864L10.8491 14.9858L10.8858 14.9645L10.8701 14.9738L10.9068 14.9525L10.8911 14.9618L10.9278 14.9405L10.9121 14.9498L10.9488 14.9285L10.9331 14.9378L10.9698 14.9165L10.9541 14.9258L10.984 14.9084L11.0218 14.8865L11.0061 14.8958L11.0339 14.8796L11.0481 14.8708L11.0848 14.8495L11.0691 14.8588L11.099 14.8414L11.1368 14.8195L11.1211 14.8288L11.1578 14.8075L11.1421 14.8168L11.1788 14.7955L11.1631 14.8048L11.1998 14.7835L11.1841 14.7928L11.214 14.7754L11.2151 14.7748L11.2518 14.7535L11.2361 14.7628L11.2728 14.7415L11.2571 14.7508L11.2938 14.7295L11.2781 14.7388L11.308 14.7214L11.3091 14.7208L11.3458 14.6995L11.3301 14.7088L11.3579 14.6926L11.3721 14.6838L11.3821 14.6778L11.4188 14.6565L11.4031 14.6658L11.4398 14.6445L11.4241 14.6538L11.454 14.6364L11.4918 14.6145L11.4761 14.6238L11.506 14.6064L11.5438 14.5845L11.5281 14.5938L11.558 14.5764L11.5591 14.5758L11.5958 14.5545L11.5801 14.5638L11.61 14.5464L11.6324 14.5331C12.6154 13.9664 13.8159 13.7365 15.1955 13.758C16.0278 13.7707 16.9091 13.8754 17.8212 14.0537L12.1323 4.19994C11.8138 5.05336 11.4469 5.84652 11.0246 6.5572C10.3352 7.71669 9.52176 8.61569 8.55284 9.175L8.55963 9.17062L8.53184 9.188L8.49511 9.2093L8.51084 9.2L8.47411 9.2213L8.46311 9.2273L8.47884 9.218L8.44211 9.2393L8.45784 9.23L8.42111 9.2513L8.48107 9.2133L8.40011 9.2643L8.38911 9.2703L8.40484 9.261L8.36811 9.2823L8.38384 9.273L8.34711 9.2943L8.36284 9.285L8.3406 9.2979L8.33084 9.304L8.29411 9.3253L8.30984 9.316L8.27311 9.3373L8.28884 9.328L8.25211 9.3493L8.24618 9.35254L8.23584 9.359L8.19911 9.3803L8.18811 9.3863L8.20384 9.377L8.16711 9.3983L8.18284 9.389L8.14611 9.4103L8.13511 9.4163L8.19507 9.3783L8.11767 9.42705L8.09311 9.4413L8.10884 9.432L8.07211 9.4533L8.06111 9.4593L8.07684 9.45L8.04011 9.4713L8.10007 9.4333L8.01911 9.4843L8.00811 9.4903L8.02384 9.481L7.98711 9.5023L8.00284 9.493L7.96611 9.5143L7.98184 9.505L7.9596 9.5179L7.94984 9.524L7.91311 9.5453L7.92884 9.536L7.89211 9.5573L7.90784 9.548L7.87111 9.5693L7.86011 9.5753L7.87584 9.566L7.83911 9.5873L7.89907 9.5493L7.82167 9.59805L7.79711 9.6123L7.78611 9.6183L7.80184 9.609L7.76511 9.6303L7.78084 9.621L7.74411 9.6423L7.75984 9.633L7.72128 9.6558L7.69111 9.6733L7.70684 9.664L7.67011 9.6853L7.68584 9.676L7.64911 9.6973L7.66484 9.688L7.62811 9.7093L7.64384 9.7L7.65063 9.69562L7.60528 9.7228L7.57511 9.7403L7.59084 9.731L7.55411 9.7523L7.56984 9.743L7.53311 9.7643L7.54884 9.755L7.51211 9.7763L7.52784 9.767L7.50002 9.78313L7.48584 9.792L7.44911 9.8133L7.46484 9.804L7.42811 9.8253L7.44384 9.816L7.40711 9.8373L7.42284 9.828L7.38611 9.8493L7.40184 9.84L7.36511 9.8613L7.38084 9.852L7.34411 9.8733L7.35984 9.864L7.33202 9.88013L7.31784 9.889L7.28111 9.9103L7.29684 9.901L7.26011 9.9223L7.27584 9.913L7.24596 9.93033L7.20811 9.9523L7.22384 9.943L7.18711 9.9643L7.20284 9.955L7.16611 9.9763L7.18184 9.967L7.15196 9.98433L7.15084 9.985L7.11411 10.0063L7.12984 9.997L7.09996 10.0143L7.09884 10.015L7.06211 10.0363L7.07784 10.027L7.04796 10.0443L7.04684 10.045L7.01011 10.0663L7.02584 10.057L6.99596 10.0743L6.99484 10.075L6.96496 10.0923L6.93396 10.1103L6.90296 10.1283L6.87196 10.1463L6.84096 10.1643L6.83984 10.165L6.80311 10.1863L6.78361 10.1966L6.76784 10.206L6.73796 10.2233L6.72684 10.23L6.69696 10.2473L6.70584 10.242L6.69696 10.2473L6.65829 10.2689L6.63484 10.283L6.60496 10.3003L6.59384 10.307L6.55629 10.3279L6.52284 10.348L6.49865 10.3609L6.45184 10.389L6.42528 10.4038L6.40196 10.4173L6.39826 10.4194L6.41084 10.412L6.40196 10.4173L6.39511 10.4213L6.37737 10.4311L6.34084 10.453L6.31737 10.4661L6.30084 10.476L6.27737 10.4891L6.25084 10.505L6.22737 10.5181L6.21084 10.528L6.18737 10.5411L6.17084 10.551L6.14737 10.5641L6.14084 10.568L6.11478 10.5832L6.10184 10.591L6.07837 10.6041L6.07184 10.608L6.05288 10.6186L6.04284 10.625L6.01937 10.6381L6.01284 10.642L5.99388 10.6526L5.98384 10.659L5.96037 10.6721L5.95384 10.676L5.92778 10.6912L5.86438 10.7267L5.935 10.6849L5.84662 10.737L5.83788 10.7426L5.79638 10.7657L5.867 10.7239L5.84662 10.737L5.88584 10.715L5.87584 10.721L5.8442 10.7395L5.85684 10.732L5.83788 10.7426L5.82784 10.749L5.77716 10.7772L5.783 10.7735L5.838 10.7409L5.78548 10.7718L5.79 10.7689L5.70038 10.8217L5.74084 10.799L5.7092 10.8175L5.72184 10.81L5.6902 10.8285L5.70284 10.821L5.64238 10.8547L5.713 10.8129L5.62338 10.8657L5.694 10.8239L5.60438 10.8767L5.675 10.8349L5.58538 10.8877L5.656 10.8459L5.57937 10.8911L5.5382 10.9165L5.51376 10.9296L5.49444 10.9415L5.4722 10.9545L5.45663 10.9628L5.44744 10.9685L5.4252 10.9815L5.4162 10.9865L5.42884 10.979L5.3972 10.9975L5.3882 11.0025L5.431 10.9759L5.40545 10.991L5.3512 11.0245L5.3422 11.0295L5.35484 11.022L5.3232 11.0405L5.3052 11.0505L5.348 11.0239L5.30469 11.0494L5.32 11.0399L5.30314 11.0503L5.28072 11.0635L5.293 11.0559L5.23133 11.0922L5.256 11.0769L5.22882 11.0937L5.20338 11.1087L5.21313 11.1034L5.1952 11.1145L5.1682 11.1295L5.211 11.1029L5.1502 11.1405L5.1232 11.1555L5.166 11.1289L5.1052 11.1665L5.0782 11.1815L5.121 11.1549L5.0602 11.1925L5.0422 11.2025L5.06647 11.1879L5.0252 11.2125L5.0072 11.2225L5.05 11.1959L4.9892 11.2335L4.9802 11.2385L5.00447 11.2239L4.9632 11.2485L4.9452 11.2585L4.96947 11.2439L4.9282 11.2685L4.9102 11.2785L4.93447 11.2639L4.8932 11.2885L4.8752 11.2985L4.89947 11.2839L4.8582 11.3085L4.88247 11.2939L4.8412 11.3185L4.8322 11.3235L4.85647 11.3089L4.8152 11.3335L4.8062 11.3385L4.83047 11.3239L4.7892 11.3485L4.81347 11.3339L4.7722 11.3585L4.79647 11.3439L4.7552 11.3685L4.77947 11.3539L4.7382 11.3785L4.71764 11.3895L4.7042 11.3975L4.71649 11.3901L4.70648 11.396L4.69547 11.4029L4.69068 11.4054L4.6872 11.4075L4.69039 11.4056L4.67796 11.4122L4.6372 11.4365L4.66147 11.4219L4.63288 11.4381L4.62847 11.4409L4.5872 11.4655L4.5762 11.4714L4.5542 11.4845L4.54046 11.4918L4.52352 11.5015L4.52947 11.4979L4.51188 11.5079L4.50829 11.5101L4.48438 11.5237L4.48947 11.5209L4.48788 11.5219L4.43538 11.5517L4.48684 11.5224L4.4897 11.5208L4.48788 11.5219L4.48147 11.5259L4.46388 11.5359L4.45747 11.5399L4.42228 11.5599L4.41747 11.5629L4.34738 11.6027L4.40147 11.5719L4.33138 11.6117L4.38547 11.5809L4.31538 11.6207L4.30402 11.6275L4.33847 11.6079L4.30305 11.6281L4.33508 11.6099L4.30507 11.6281L4.32347 11.6169L4.30497 11.6274L4.27407 11.6461L4.29247 11.6349L4.27397 11.6454L4.24307 11.6641L4.22886 11.6717L4.22007 11.6771L4.22839 11.672L4.20507 11.6861L4.19086 11.6937L4.18207 11.6991L4.19039 11.694L4.16707 11.7081L4.14858 11.7181L4.15547 11.7139L4.14819 11.7183L4.12338 11.7317L4.10838 11.7407L4.13597 11.7257L4.12207 11.7341L4.11507 11.7381L4.09276 11.7501L4.07138 11.7617L4.05638 11.7707L4.08008 11.7578L4.06307 11.7681L4.05607 11.7721L4.03935 11.7811L4.02707 11.7891L4.0083 11.7992L3.99807 11.8051L4.00096 11.8032L3.98407 11.8141L7.07287 17.1661ZM3.9513 11.4075L4.1639 11.7052L4.1569 11.7102L4.11518 11.7353L3.9513 11.4075ZM7.82437 16.7365L8.13797 17.4179L7.74047 16.7819L7.75246 16.7747L7.82437 16.7365ZM7.53364 17.5722L7.19604 17.0996L7.20304 17.0946L7.27358 17.0521L7.53364 17.5722ZM7.41564 17.4522L7.17304 17.1126L7.18004 17.1076L7.22868 17.0783L7.41564 17.4522ZM7.20656 17.0911L7.46897 17.6159L7.12804 17.1386L7.13504 17.1336L7.20127 17.0937L7.20656 17.0911ZM7.28864 17.4072L7.10604 17.1516L7.14501 17.1263L7.28864 17.4072ZM7.20491 17.3949C7.18948 17.3682 7.16997 17.3453 7.14761 17.3264L7.04704 17.1856L7.07401 17.1681L7.20491 17.3949ZM6.95553 17.2395L6.96253 17.2365L6.97395 17.2632C6.93748 17.2633 6.90077 17.2709 6.86629 17.2867L6.8842 17.2755L6.89704 17.269L6.88295 17.2778L6.89739 17.2688L6.95553 17.2395Z" fill="#826F75"/>
<path id="Path_2" fill-rule="evenodd" clip-rule="evenodd" d="M14.7296 7.33355C15.2833 7.01425 15.9908 7.20375 16.3106 7.75711L16.9494 8.86381C17.2686 9.41722 17.0789 10.1254 16.5262 10.4442L17.2756 11.7435C18.5464 11.0107 18.9816 9.38507 18.2486 8.11415L17.6095 7.00692C16.8753 5.73632 15.251 5.30127 13.9802 6.03418L14.7296 7.33355Z" fill="#826F75"/>
<path id="Path_3" fill-rule="evenodd" clip-rule="evenodd" d="M5.52954 9.6025L9.77854 16.9625L11.0776 16.2125L6.8286 8.85254L5.52954 9.6025Z" fill="#826F75"/>
<path id="Path_4" fill-rule="evenodd" clip-rule="evenodd" d="M2.68068 12.0781C1.79112 12.5924 1.48566 13.7299 1.99947 14.6203L3.70363 17.5706C4.21751 18.4611 5.35647 18.7663 6.24646 18.2517L5.49568 16.9531C5.32341 17.0527 5.10248 16.9935 5.00267 16.8206L3.29851 13.8703C3.19893 13.6977 3.25824 13.4769 3.43146 13.3767L2.68068 12.0781Z" fill="#826F75"/>
<path id="Path_5" fill-rule="evenodd" clip-rule="evenodd" d="M7.76465 17.337L11.7981 15.0093L12.2026 15.3693L14.8684 17.742C15.371 18.1907 15.2871 19 14.7039 19.3351L12.4708 20.6243C12.1025 20.8353 11.6386 20.7888 11.322 20.5055L9.81005 19.1585L7.76465 17.337ZM10.8077 18.0384L12.0432 19.1391L13.3405 18.3902L11.6098 16.8498L10.3132 17.5981L10.8077 18.0384Z" fill="#826F75"/>
<path id="Path_6" fill-rule="evenodd" clip-rule="evenodd" d="M19.6647 7.14531L21.4657 6.10631C21.8245 5.89933 21.9476 5.44068 21.7406 5.08189C21.5336 4.7231 21.0749 4.60004 20.7161 4.80702L18.9151 5.84602C18.5563 6.05301 18.4333 6.51166 18.6403 6.87045C18.8473 7.22924 19.3059 7.3523 19.6647 7.14531Z" fill="#826F75"/>
<path id="Path_7" fill-rule="evenodd" clip-rule="evenodd" d="M18.4223 5.00628L18.6813 4.04128C18.7887 3.64123 18.5514 3.22987 18.1514 3.1225C17.7513 3.01513 17.3399 3.2524 17.2326 3.65245L16.9736 4.61745C16.8662 5.01751 17.1035 5.42886 17.5035 5.53623C17.9036 5.6436 18.3149 5.40634 18.4223 5.00628Z" fill="#826F75"/>
<path id="Path_8" fill-rule="evenodd" clip-rule="evenodd" d="M20.0659 9.92969H21.0659C21.4801 9.92969 21.8159 9.5939 21.8159 9.17969C21.8159 8.76547 21.4801 8.42969 21.0659 8.42969H20.0659C19.6517 8.42969 19.3159 8.76547 19.3159 9.17969C19.3159 9.5939 19.6517 9.92969 20.0659 9.92969Z" fill="#826F75"/>
</g>
</svg>
