<svg width="24" height="24" viewBox="0 0 24 24" fill="none" xmlns="http://www.w3.org/2000/svg">
<g id="FN Components/&#240;&#159;&#142;&#137; Icons/24x24/Mid-Taupe/types/committee">
<path id="Path" fill-rule="evenodd" clip-rule="evenodd" d="M15.1496 16.035C15.4424 16.3281 15.9174 16.3281 16.2103 16.0352L18.2387 14.0068H19.426C20.0221 14.0068 20.5943 14.2438 21.0157 14.6652C21.4367 15.0862 21.673 15.6573 21.673 16.2538V19.9998C21.673 20.414 22.0088 20.7498 22.423 20.7498C22.8372 20.7498 23.173 20.414 23.173 19.9998V16.2538C23.173 15.2597 22.7788 14.307 22.0763 13.6045C21.3737 12.9018 20.4199 12.5068 19.426 12.5068H17.928C17.7291 12.5068 17.5383 12.5859 17.3977 12.7265L15.6801 14.4441L13.9635 12.7266C13.8228 12.5859 13.632 12.5068 13.433 12.5068H11.934C10.941 12.5068 9.98723 12.902 9.28468 13.6045C8.5819 14.3073 8.18701 15.2601 8.18701 16.2538V19.9998C8.18701 20.414 8.5228 20.7498 8.93701 20.7498C9.35123 20.7498 9.68701 20.414 9.68701 19.9998V16.2538C9.68701 15.658 9.92379 15.0867 10.3453 14.6652C10.7666 14.2439 11.3388 14.0068 11.934 14.0068H13.1223L15.1496 16.035Z" fill="#826F75"/>
<path id="Path_2" fill-rule="evenodd" clip-rule="evenodd" d="M15.679 11.9619C17.5252 11.9619 19.023 10.4641 19.023 8.61793C19.023 6.77101 17.5255 5.27393 15.679 5.27393C13.8317 5.27393 12.335 6.77071 12.335 8.61793C12.335 10.4644 13.832 11.9619 15.679 11.9619ZM15.679 10.4619C14.6606 10.4619 13.835 9.6361 13.835 8.61793C13.835 7.59914 14.6602 6.77393 15.679 6.77393C16.6971 6.77393 17.523 7.59953 17.523 8.61793C17.523 9.63571 16.6967 10.4619 15.679 10.4619Z" fill="#826F75"/>
<path id="Path_3" fill-rule="evenodd" clip-rule="evenodd" d="M11.1851 17.7529V19.9999C11.1851 20.4141 11.5208 20.7499 11.9351 20.7499C12.3493 20.7499 12.6851 20.4141 12.6851 19.9999V17.7529C12.6851 17.3387 12.3493 17.0029 11.9351 17.0029C11.5208 17.0029 11.1851 17.3387 11.1851 17.7529Z" fill="#826F75"/>
<path id="Path_4" fill-rule="evenodd" clip-rule="evenodd" d="M20.178 19.9999V17.7529C20.178 17.3387 19.8422 17.0029 19.428 17.0029C19.0138 17.0029 18.678 17.3387 18.678 17.7529V19.9999C18.678 20.4141 19.0138 20.7499 19.428 20.7499C19.8422 20.7499 20.178 20.4141 20.178 19.9999Z" fill="#826F75"/>
<path id="Path_5" fill-rule="evenodd" clip-rule="evenodd" d="M7.21267 14.0112C7.50556 14.3041 7.98044 14.3041 8.27333 14.0112L10.3017 11.9829H11.489C11.9032 11.9829 12.239 11.6471 12.239 11.2329C12.239 10.8187 11.9032 10.4829 11.489 10.4829H9.991C9.79209 10.4829 9.60132 10.5619 9.46067 10.7026L7.743 12.4202L6.02533 10.7026C5.88468 10.5619 5.69391 10.4829 5.495 10.4829H3.997C3.00327 10.4829 2.05045 10.8778 1.34767 11.5806C0.644886 12.2834 0.25 13.2362 0.25 14.2299V17.9759C0.25 18.3901 0.585786 18.7259 1 18.7259C1.41421 18.7259 1.75 18.3901 1.75 17.9759V14.2299C1.75 13.6341 1.98678 13.0628 2.40833 12.6412C2.82988 12.2197 3.4012 11.9829 3.997 11.9829H5.18434L7.21267 14.0112Z" fill="#826F75"/>
<path id="Path_6" fill-rule="evenodd" clip-rule="evenodd" d="M7.74097 9.938C9.58819 9.938 11.085 8.44121 11.085 6.594C11.085 4.74679 9.58819 3.25 7.74097 3.25C5.89446 3.25 4.39697 4.74709 4.39697 6.594C4.39697 8.44091 5.89446 9.938 7.74097 9.938ZM7.74097 8.438C6.7228 8.438 5.89697 7.6124 5.89697 6.594C5.89697 5.5756 6.7228 4.75 7.74097 4.75C8.75976 4.75 9.58497 5.57521 9.58497 6.594C9.58497 7.61279 8.75976 8.438 7.74097 8.438Z" fill="#826F75"/>
<path id="Path_7" fill-rule="evenodd" clip-rule="evenodd" d="M3.24707 15.729V17.976C3.24707 18.3902 3.58286 18.726 3.99707 18.726C4.41128 18.726 4.74707 18.3902 4.74707 17.976V15.729C4.74707 15.3148 4.41128 14.979 3.99707 14.979C3.58286 14.979 3.24707 15.3148 3.24707 15.729Z" fill="#826F75"/>
</g>
</svg>
