<svg width="22" height="19" viewBox="0 0 22 19" fill="none" xmlns="http://www.w3.org/2000/svg">
<path d="M21.1901 4.7957V4.43151C21.1901 4.14825 21.0556 3.87511 20.8168 3.67278C20.5781 3.47045 20.2544 3.35917 19.9165 3.35917H11.8506L10.5011 1.89228C10.0873 1.40669 9.45098 1.09308 9.11309 1.09308H2.93598C2.5991 1.09308 2.27436 1.20436 2.03562 1.40669C1.79687 1.60902 1.66333 1.88216 1.66333 2.16542V16.2374C1.66333 16.5207 1.79687 16.8039 2.03562 17.0063C2.27436 17.2086 2.5991 17.3199 2.93598 17.3199H19.9165C20.2544 17.3199 20.5781 17.2086 20.8168 17.0063C21.0556 16.8039 21.1901 16.5207 21.1901 16.2374V8.9738C21.1922 8.88276 21.1719 8.78159 21.1304 8.70066C21.088 8.60961 21.0252 8.52868 20.9463 8.45787C20.8674 8.39717 20.7723 8.34658 20.6681 8.30612C20.5639 8.27577 20.4526 8.25554 20.3403 8.25554H6.33208C6.21979 8.25554 6.1085 8.27577 6.00431 8.30612C5.90112 8.34658 5.80602 8.39717 5.72711 8.45787C5.64719 8.52868 5.58548 8.60961 5.54299 8.70066C5.50152 8.78159 5.48128 8.88276 5.48331 8.9738V14.3355" stroke="" stroke-width="1.5" stroke-linecap="round" stroke-linejoin="round"/>
</svg>
