<svg width="24" height="24" viewBox="0 0 24 24" fill="none" xmlns="http://www.w3.org/2000/svg">
<g id="FN Components/&#240;&#159;&#142;&#137; Icons/24x24/Mid-Taupe/types/issue">
<path id="Path" fill-rule="evenodd" clip-rule="evenodd" d="M12.6628 7.037L11.8215 6.12613C11.4058 5.63569 10.7098 5.25 10.1755 5.25H5.30454C4.86387 5.25 4.43496 5.40096 4.10845 5.67885C3.7579 5.97532 3.55054 6.39937 3.55054 6.851V17.149C3.55054 17.6008 3.75705 18.0231 4.10845 18.3222C4.4349 18.6 4.86364 18.75 5.30454 18.75H18.6955C19.1358 18.75 19.563 18.6004 19.8901 18.3234C20.243 18.0231 20.4495 17.6008 20.4495 17.149V10.624C20.4495 10.2098 20.1138 9.874 19.6995 9.874C19.2853 9.874 18.9495 10.2098 18.9495 10.624V17.149C18.9495 17.1485 18.9447 17.1584 18.9194 17.1798C18.8707 17.2211 18.7882 17.25 18.6955 17.25H5.30454C5.21179 17.25 5.12903 17.221 5.08063 17.1798C5.05538 17.1584 5.05054 17.1485 5.05054 17.149V6.851C5.05054 6.8524 5.05537 6.84252 5.07886 6.82266C5.1299 6.77922 5.21291 6.75 5.30454 6.75H10.1755C10.2241 6.75 10.5265 6.91757 10.6989 7.12052L11.7836 8.29587C11.9256 8.44958 12.1253 8.537 12.3345 8.537H18.6955C18.7882 8.537 18.8707 8.56591 18.9209 8.60842C18.9447 8.62864 18.9495 8.63855 18.9495 8.638C18.9495 9.05221 19.2853 9.388 19.6995 9.388C20.1138 9.388 20.4495 9.05221 20.4495 8.638C20.4495 8.18622 20.243 7.76391 19.8916 7.46485C19.563 7.18663 19.1358 7.037 18.6955 7.037H12.6628Z" fill="#826F75"/>
</g>
</svg>
