<svg width="14" height="13" viewBox="0 0 14 13" fill="none" xmlns="http://www.w3.org/2000/svg">
<path d="M1.74195 6.66996L2.27228 6.13963L2.27222 6.13957L1.74195 6.66996ZM1.4992 6.12782L2.248 6.08543L2.2056 5.33662L1.4568 5.37902L1.4992 6.12782ZM1.4992 6.12782L1.5416 6.87662L2.29038 6.83423L2.248 6.08544L1.4992 6.12782ZM1.25879 1.88046L0.509985 1.92285L0.509985 1.92285L1.25879 1.88046ZM2.13788 1.00136L2.18026 0.252562L2.18026 0.252562L2.13788 1.00136ZM6.38522 1.24178L6.42762 0.492976L6.4276 0.492975L6.38522 1.24178ZM6.92742 1.48452L7.45775 0.954195L7.45769 0.954132L6.92742 1.48452ZM12.1575 6.71462L11.6272 7.24495L11.6272 7.24495L12.1575 6.71462ZM6.97209 11.9001L7.50242 11.3698L7.50242 11.3698L6.97209 11.9001ZM2.27222 6.13957C2.25782 6.12517 2.24916 6.1059 2.248 6.08543L0.750399 6.17022C0.772387 6.55855 0.936544 6.92528 1.21168 7.20035L2.27222 6.13957ZM1.4568 5.37902L0.9576 5.40729L1.0424 6.90489L1.5416 6.87662L1.4568 5.37902ZM1.0424 6.90489L1.5416 6.87662L1.4568 5.37902L0.9576 5.40729L1.0424 6.90489ZM2.248 6.08544L2.00759 1.83808L0.509985 1.92285L0.750399 6.17021L2.248 6.08544ZM2.00759 1.83808C2.00478 1.7884 2.04583 1.74735 2.0955 1.75016L2.18026 0.252562C1.23655 0.199146 0.45657 0.979137 0.509985 1.92285L2.00759 1.83808ZM2.0955 1.75016L6.34284 1.99058L6.4276 0.492975L2.18026 0.252562L2.0955 1.75016ZM6.34282 1.99058C6.36327 1.99173 6.38261 2.00038 6.39715 2.01491L7.45769 0.954132C7.18263 0.679132 6.81597 0.514965 6.42762 0.492976L6.34282 1.99058ZM6.39709 2.01485L11.6272 7.24495L12.6878 6.1843L7.45775 0.954195L6.39709 2.01485ZM11.6272 7.24495C11.6597 7.27753 11.6597 7.33025 11.6272 7.36283L12.6878 8.42349C13.3062 7.80513 13.3062 6.80265 12.6878 6.18429L11.6272 7.24495ZM11.6272 7.36283L7.62022 11.3698L8.68088 12.4304L12.6878 8.42349L11.6272 7.36283ZM7.62022 11.3698C7.58772 11.4023 7.53492 11.4023 7.50242 11.3698L6.44176 12.4304C7.06005 13.0487 8.06259 13.0487 8.68088 12.4304L7.62022 11.3698ZM7.50242 11.3698L2.27228 6.13963L1.21162 7.20029L6.44176 12.4304L7.50242 11.3698ZM4.98706 4.02256C5.18232 4.21782 5.18232 4.5344 4.98706 4.72966L3.9264 3.669C3.53588 4.05953 3.53588 4.69269 3.9264 5.08322L4.98706 4.02256ZM4.27995 4.02256C4.47522 3.82729 4.7918 3.82729 4.98706 4.02256L3.9264 5.08322C4.31692 5.47374 4.95009 5.47374 5.34061 5.08322L4.27995 4.02256ZM4.27995 4.72966C4.08469 4.5344 4.08469 4.21782 4.27995 4.02256L5.34061 5.08322C5.73114 4.69269 5.73114 4.05953 5.34061 3.669L4.27995 4.72966ZM4.98706 4.72966C4.7918 4.92493 4.47522 4.92493 4.27995 4.72966L5.34061 3.669C4.95009 3.27848 4.31692 3.27848 3.9264 3.669L4.98706 4.72966ZM2.86574 2.60834C1.88943 3.58465 1.88943 5.16757 2.86574 6.14388L3.9264 5.08322C3.53588 4.69269 3.53588 4.05953 3.9264 3.669L2.86574 2.60834ZM6.40127 2.60834C5.42496 1.63203 3.84205 1.63203 2.86574 2.60834L3.9264 3.669C4.31692 3.27848 4.95009 3.27848 5.34061 3.669L6.40127 2.60834ZM6.40127 6.14388C7.37758 5.16757 7.37758 3.58465 6.40127 2.60834L5.34061 3.669C5.73114 4.05953 5.73114 4.69269 5.34061 5.08322L6.40127 6.14388ZM2.86574 6.14388C3.84205 7.12019 5.42496 7.12019 6.40127 6.14388L5.34061 5.08322C4.95009 5.47374 4.31692 5.47374 3.9264 5.08322L2.86574 6.14388Z" fill="#826F75"/>
</svg>
