<svg width="24" height="24" viewBox="0 0 24 24" fill="none" xmlns="http://www.w3.org/2000/svg">
<g id="FN Components/&#240;&#159;&#142;&#137; Icons/24x24/Mid-Taupe/types/note">
<path id="Path" fill-rule="evenodd" clip-rule="evenodd" d="M17.2061 12.277V3H12.2991V12.277L14.7521 9.429L17.2061 12.277Z" fill="#826F75"/>
<path id="Path_2" fill-rule="evenodd" clip-rule="evenodd" d="M3.25 5.897V18.608C3.25 20.1288 4.48366 21.3607 6.00436 21.358L18.0031 21.341C19.5208 21.3396 20.75 20.1138 20.75 18.597C20.749 15.3399 20.749 8.85306 20.75 4.99819C20.75 3.47894 19.5194 2.25 18 2.25H4.522C4.10779 2.25 3.772 2.58579 3.772 3C3.772 3.41421 4.10779 3.75 4.522 3.75H18C18.6914 3.75 19.25 4.30783 19.25 4.998C19.249 8.85294 19.249 15.3401 19.25 18.5972C19.25 19.2847 18.6928 19.8404 18.0013 19.841L6.00194 19.858C5.31058 19.8592 4.75 19.2994 4.75 18.608V5.897C4.75 5.48279 4.41421 5.147 4 5.147C3.58579 5.147 3.25 5.48279 3.25 5.897Z" fill="#826F75"/>
<path id="Path_3" fill-rule="evenodd" clip-rule="evenodd" d="M6.12695 3V20.611H7.62695V3H6.12695Z" fill="#826F75"/>
</g>
</svg>
