<svg width="22" height="21" viewBox="0 0 22 21" fill="none" xmlns="http://www.w3.org/2000/svg">
<g opacity="1">
<path fill-rule="evenodd" clip-rule="evenodd" d="M13.0153 12.6835C15.7215 9.98238 15.7215 5.59184 13.0153 2.89074C10.3082 0.179527 5.91963 0.179527 3.21348 2.89074C0.506314 5.59184 0.506314 9.98238 3.21348 12.6835C5.91963 15.3947 10.3082 15.3947 13.0153 12.6835Z" stroke="" stroke-width="1.5" stroke-linecap="round" stroke-linejoin="round"/>
<path d="M8.11499 5.12647C8.72906 5.02531 9.35932 5.17705 9.86514 5.53113C10.371 5.8852 10.7119 6.43149 10.8131 7.02837" stroke="white" stroke-width="1.5" stroke-linecap="round" stroke-linejoin="round"/>
<path d="M13.0144 12.6835L15.0569 14.727" stroke="" stroke-width="1.5" stroke-linecap="round" stroke-linejoin="round"/>
<path fill-rule="evenodd" clip-rule="evenodd" d="M15.8753 14.727L15.0579 15.5464C14.6067 16.0017 14.6067 16.7301 15.0579 17.1853L17.5091 19.6335C17.9603 20.0786 18.6917 20.0786 19.1429 19.6335L19.9593 18.8141C20.4105 18.3588 20.4105 17.6304 19.9593 17.1853L17.5091 14.727C17.0579 14.2819 16.3265 14.2819 15.8753 14.727Z" stroke="" stroke-width="1.5" stroke-linecap="round" stroke-linejoin="round"/>
</g>
</svg>
